<svg width="36" height="36" viewBox="0 0 36 36" fill="none" xmlns="http://www.w3.org/2000/svg">
<g id="apple-logo">
<g id="Group">
<g id="Group_2">
<path id="Vector" d="M24.9279 0C25.0117 0 25.0955 0 25.184 0C25.3895 2.5388 24.4205 4.43578 23.2428 5.80951C22.0872 7.17376 20.5048 8.4969 17.9455 8.29614C17.7747 5.7937 18.7454 4.03741 19.9215 2.66684C21.0123 1.38954 23.012 0.252931 24.9279 0Z" fill="white"/>
<path id="Vector_2" d="M32.6755 26.4236C32.6755 26.4489 32.6755 26.471 32.6755 26.4947C31.9563 28.6731 30.9303 30.5401 29.6783 32.2726C28.5354 33.8455 27.1348 35.9623 24.6339 35.9623C22.4729 35.9623 21.0375 34.5727 18.8228 34.5348C16.48 34.4968 15.1917 35.6967 13.0497 35.9986C12.8046 35.9986 12.5596 35.9986 12.3193 35.9986C10.7464 35.771 9.47702 34.5253 8.55224 33.4029C5.82532 30.0864 3.71809 25.8023 3.32605 20.3201C3.32605 19.7826 3.32605 19.2467 3.32605 18.7092C3.49204 14.7856 5.3985 11.5955 7.93256 10.0495C9.26993 9.22744 11.1084 8.52714 13.1556 8.84014C14.0329 8.97609 14.9293 9.27645 15.7149 9.57364C16.4595 9.85977 17.3906 10.3672 18.2727 10.3403C18.8702 10.323 19.4646 10.0115 20.0669 9.7918C21.8311 9.15473 23.5605 8.42439 25.8401 8.76743C28.5796 9.1816 30.524 10.3988 31.7255 12.2768C29.408 13.7518 27.5758 15.9744 27.8888 19.7699C28.167 23.2177 30.1715 25.2348 32.6755 26.4236Z" fill="white"/>
</g>
</g>
</g>
</svg>
