<svg width="33" height="36" viewBox="0 0 33 36" fill="none" xmlns="http://www.w3.org/2000/svg">
<g id="google-play" clip-path="url(#clip0_1020_58)">
<g id="_x34_2.Google_PLay">
<path id="Vector" d="M30.5724 15.3025L24.4759 11.7812L18.2344 18.0227L24.4754 24.2638L30.5931 20.7308C31.5471 20.1512 32.1164 19.1387 32.1164 18.0227C32.1164 16.9067 31.5467 15.8942 30.5724 15.3025V15.3025Z" fill="#FFCE00"/>
<path id="Vector_2" d="M18.2343 18.0213L1.23384 0.898438C0.642546 1.48974 0.283447 2.29208 0.283447 3.17903V32.8114C0.283447 33.6984 0.642546 34.5007 1.23384 35.0925L18.2343 18.0213Z" fill="url(#paint0_linear_1020_58)"/>
<path id="Vector_3" d="M18.2344 18.0212L24.4759 11.7797L24.4858 11.7698L16.123 6.95484L5.09892 0.475766C4.10623 -0.136682 2.90248 -0.157832 1.88863 0.412316C1.65644 0.559916 1.44494 0.707965 1.23389 0.897864L18.2344 18.0212Z" fill="#00F076"/>
<path id="Vector_4" d="M1.23389 35.0902C1.44494 35.2801 1.65644 35.4282 1.88863 35.5758C2.39533 35.8503 2.92363 35.9983 3.45148 35.9983C4.02163 35.9983 4.57063 35.8296 5.07777 35.5339L16.1225 29.0859L24.4853 24.2709L24.4754 24.261L18.2344 18.0195L1.23389 35.0902Z" fill="#F63448"/>
</g>
</g>
<defs>
<linearGradient id="paint0_linear_1020_58" x1="-7.31433" y1="26.5439" x2="9.78247" y2="9.44661" gradientUnits="userSpaceOnUse">
<stop stop-color="#00E2FF"/>
<stop offset="1" stop-color="#00C5FF"/>
</linearGradient>
<clipPath id="clip0_1020_58">
<rect width="32.3999" height="36" fill="white"/>
</clipPath>
</defs>
</svg>
