<svg width="60" height="60" viewBox="0 0 60 60" fill="none" xmlns="http://www.w3.org/2000/svg">
<g id="Group 21">
<circle id="Ellipse 4" cx="30" cy="30" r="30" fill="#43A2FF"/>
<g id="Group 292935">
<g id="Coin">
<g id="Ellipse 1740">
<mask id="path-2-inside-1_976_7072" fill="white">
<path d="M34.7844 33.6632C36.1986 33.1104 37.4332 32.1654 38.3488 30.9349C39.2644 29.7043 39.8247 28.2373 39.9662 26.6992C40.1078 25.1611 39.8252 23.6133 39.1501 22.2304C38.4751 20.8476 37.4346 19.6846 36.146 18.8729C34.8574 18.0612 33.372 17.6331 31.8575 17.6367C30.343 17.6404 28.8597 18.0758 27.5749 18.8937C26.2901 19.7117 25.255 20.8796 24.5864 22.2658C23.9178 23.6519 23.6424 25.2011 23.7911 26.7384L25.004 26.6163C24.8776 25.3096 25.1117 23.9928 25.68 22.8146C26.2483 21.6363 27.1281 20.6436 28.2202 19.9483C29.3123 19.2531 30.5731 18.883 31.8604 18.8799C33.1478 18.8768 34.4103 19.2407 35.5056 19.9307C36.6009 20.6206 37.4854 21.6091 38.0591 22.7845C38.6329 23.96 38.8732 25.2756 38.7528 26.583C38.6325 27.8903 38.1563 29.1373 37.378 30.1833C36.5997 31.2293 35.5504 32.0325 34.3483 32.5024L34.7844 33.6632Z"/>
</mask>
<path d="M34.7844 33.6632C36.1986 33.1104 37.4332 32.1654 38.3488 30.9349C39.2644 29.7043 39.8247 28.2373 39.9662 26.6992C40.1078 25.1611 39.8252 23.6133 39.1501 22.2304C38.4751 20.8476 37.4346 19.6846 36.146 18.8729C34.8574 18.0612 33.372 17.6331 31.8575 17.6367C30.343 17.6404 28.8597 18.0758 27.5749 18.8937C26.2901 19.7117 25.255 20.8796 24.5864 22.2658C23.9178 23.6519 23.6424 25.2011 23.7911 26.7384L25.004 26.6163C24.8776 25.3096 25.1117 23.9928 25.68 22.8146C26.2483 21.6363 27.1281 20.6436 28.2202 19.9483C29.3123 19.2531 30.5731 18.883 31.8604 18.8799C33.1478 18.8768 34.4103 19.2407 35.5056 19.9307C36.6009 20.6206 37.4854 21.6091 38.0591 22.7845C38.6329 23.96 38.8732 25.2756 38.7528 26.583C38.6325 27.8903 38.1563 29.1373 37.378 30.1833C36.5997 31.2293 35.5504 32.0325 34.3483 32.5024L34.7844 33.6632Z" stroke="white" stroke-width="23" mask="url(#path-2-inside-1_976_7072)"/>
</g>
<ellipse id="Ellipse 59" cx="27.0003" cy="33.5002" rx="7.49999" ry="7.50016" stroke="white"/>
<path id="Rupee" d="M24.5 30C24.5 30 25.4795 30 26.1071 30M28.0714 38L25.2143 34.4444C25.2143 34.4444 25.75 34.4444 26.1071 34.4444C26.4643 34.4444 28.25 34.4444 28.25 32.2222C28.25 30 26.4643 30 26.1071 30M29.5 30C29.5 30 27.1532 30 26.1071 30M24.5 32.2222H29.5" stroke="white" stroke-width="1.5" stroke-linecap="round" stroke-linejoin="round"/>
<path id="Arrow 1" d="M21.8709 17.5424C22.157 17.2428 22.157 16.7572 21.8709 16.4576C21.5848 16.158 21.121 16.158 20.835 16.4576L21.8709 17.5424ZM14.2675 23.6523C14.2675 24.076 14.5954 24.4194 15 24.4194L21.5929 24.4194C21.9974 24.4194 22.3254 24.076 22.3254 23.6523C22.3254 23.2287 21.9974 22.8853 21.5929 22.8853H15.7325V16.7488C15.7325 16.3251 15.4046 15.9817 15 15.9817C14.5954 15.9817 14.2675 16.3251 14.2675 16.7488L14.2675 23.6523ZM20.835 16.4576L14.482 23.1099L15.518 24.1947L21.8709 17.5424L20.835 16.4576Z" fill="white"/>
<path id="Arrow 2" d="M38.1291 41.9576C37.843 42.2572 37.843 42.7428 38.1291 43.0424C38.4152 43.342 38.879 43.342 39.165 43.0424L38.1291 41.9576ZM45.7325 35.8477C45.7325 35.424 45.4046 35.0806 45 35.0806L38.4071 35.0806C38.0026 35.0806 37.6746 35.424 37.6746 35.8477C37.6746 36.2713 38.0026 36.6147 38.4071 36.6147H44.2675V42.7512C44.2675 43.1749 44.5954 43.5183 45 43.5183C45.4046 43.5183 45.7325 43.1749 45.7325 42.7512L45.7325 35.8477ZM39.165 43.0424L45.518 36.3901L44.482 35.3053L38.1291 41.9576L39.165 43.0424Z" fill="white"/>
</g>
</g>
</g>
</svg>
