<svg width="60" height="60" viewBox="0 0 60 60" fill="none" xmlns="http://www.w3.org/2000/svg">
<g id="Group 21">
<circle id="Ellipse 4" cx="30" cy="30" r="30" fill="#43A2FF"/>
<g id="Group 68433">
<g id="Group 68434">
<g id="Group 1007">
<path id="Rectangle 648" d="M21.2632 34.5395H19.77C18.1181 34.5395 17.2922 34.5395 16.6591 34.2231C16.0779 33.9327 15.6067 33.4615 15.3164 32.8804C15 32.2473 15 31.4213 15 29.7695V23.52C15 21.8681 15 21.0422 15.3164 20.4091C15.6067 19.8279 16.0779 19.3567 16.6591 19.0664C17.2922 18.75 18.1181 18.75 19.77 18.75H33.7425C35.3944 18.75 36.2203 18.75 36.8534 19.0664C37.4346 19.3567 37.9058 19.8279 38.1961 20.4091C38.5125 21.0422 38.5125 21.8681 38.5125 23.52V25.8037" stroke="white" stroke-width="2"/>
</g>
<g id="Group 1008">
<rect id="Rectangle 648_2" x="21.002" y="25.4961" width="23.999" height="15.75" rx="3" stroke="white" stroke-width="2"/>
<path id="Rupee" d="M30.002 29.6211C30.002 29.6211 31.1773 29.6211 31.9304 29.6211M34.2875 37.1211L30.8591 33.7878C30.8591 33.7878 31.5019 33.7878 31.9304 33.7878C32.359 33.7878 34.5018 33.7878 34.5018 31.7044C34.5018 29.6211 32.359 29.6211 31.9304 29.6211M36.0017 29.6211C36.0017 29.6211 33.1856 29.6211 31.9304 29.6211M30.002 31.7044H36.0017" stroke="white" stroke-width="1.5" stroke-linecap="round" stroke-linejoin="round"/>
</g>
</g>
</g>
</g>
</svg>
