<svg width="162" height="60" viewBox="0 0 162 60" fill="none" xmlns="http://www.w3.org/2000/svg">
<g id="LogoDark2" clip-path="url(#clip0_1020_64)">
<path id="Vector" d="M138.833 18.0896H128.59C130.395 20.1425 131.613 22.7369 131.907 25.602H138.787V30.1816H131.613C130.598 34.4904 127.508 38.0324 123.469 39.6567L135.922 52.1096H129.448L126.38 49.0415L117.942 40.604H117.965V36.0244H118.439C119.363 36.0244 120.266 35.8891 121.101 35.6184C121.935 35.3477 122.725 34.9643 123.447 34.4904V34.4678C124.981 33.4302 126.177 31.9187 126.831 30.1591H117.92V25.5795H127.259C126.628 21.6991 123.515 18.6536 119.589 18.1347H119.544V13.4648H138.81L138.833 18.0896Z" fill="white"/>
<path id="Vector_2" d="M0.067627 18.2245V13.5547H17.574V18.2245H0.067627ZM0.067627 36.0917V22.7816H12.0694V27.4515H5.48197V36.0917H0.067627Z" fill="white"/>
<path id="Vector_3" d="M24.3868 36.1587V13.5312H29.8238V31.4889H41.0134V36.1587H24.3868Z" fill="white"/>
<path id="Vector_4" d="M51.5941 35.2575C50.1503 34.6485 48.9095 33.8137 47.8493 32.7984C46.8341 31.8059 46.0218 30.5876 45.4579 29.2566C44.8714 27.8804 44.6005 26.4366 44.6005 24.9025V24.8349C44.6005 23.2557 44.894 21.8345 45.4579 20.4583C46.0444 19.1048 46.8566 17.9091 47.8944 16.8714C48.9546 15.811 50.1954 14.9763 51.6618 14.3672C53.1056 13.7581 54.7074 13.4648 56.4219 13.4648C58.1815 13.4648 59.7607 13.7581 61.2271 14.3672C62.6709 14.9763 63.9117 15.811 64.9495 16.8262C66.0097 17.8414 66.7994 19.0371 67.3859 20.3681C67.9726 21.7443 68.2432 23.188 68.2432 24.7446V24.8123C68.2432 26.3464 67.95 27.7902 67.3859 29.1664C66.7768 30.52 65.9871 31.7157 64.927 32.7758C63.9117 33.7911 62.6483 34.6259 61.1819 35.2349C59.7156 35.844 58.1364 36.1374 56.3768 36.1374C54.6397 36.16 53.0605 35.8665 51.5941 35.2575ZM58.9261 31.0613C59.693 30.7004 60.3699 30.2719 60.9113 29.6626C61.498 29.0536 61.904 28.3541 62.2198 27.5195C62.5356 26.6847 62.6935 25.8276 62.6935 24.9025V24.8349C62.6935 23.8649 62.5356 23.0076 62.2198 22.1729C61.904 21.3382 61.4526 20.6388 60.8662 20.0297C60.2797 19.4206 59.6253 18.9468 58.8584 18.5859C58.0913 18.2249 57.2567 18.067 56.3542 18.067C55.452 18.067 54.6171 18.2249 53.8502 18.5859C53.0831 18.9017 52.4515 19.3755 51.8874 19.9846C51.3009 20.5937 50.8723 21.2931 50.5338 22.1052C50.218 22.9399 50.0601 23.7973 50.0601 24.7672V24.8349C50.0601 25.7599 50.218 26.6622 50.5338 27.497C50.8498 28.2864 51.3009 29.031 51.8874 29.6401C52.4741 30.2493 53.1282 30.723 53.8953 31.0388C54.6623 31.3997 55.4971 31.5578 56.3993 31.5578C57.3244 31.5352 58.1589 31.3771 58.9261 31.0613Z" fill="white"/>
<path id="Vector_5" d="M90.1712 36.2498L83.6515 20.1872L78.9591 31.7379H83.9222V36.2498H71.6046L81.2377 13.5547H86.2008L95.8563 36.2498H90.1712Z" fill="white"/>
<path id="Vector_6" d="M95.2698 18.2688V13.5312H114.333V18.2688H107.52V36.1362H102.083V18.2688H95.2698Z" fill="white"/>
<path id="Vector_7" d="M101.09 47.4171H0.180478C0.0676782 47.4171 0 47.1915 0 46.8532C0 46.5149 0.0902391 46.2891 0.180478 46.2891H101.068C101.18 46.2891 101.248 46.5149 101.248 46.8532C101.248 47.1915 101.18 47.4171 101.09 47.4171Z" fill="#0C6132"/>
<path id="Vector_8" d="M157.873 44.2586C154.263 50.9136 148.488 55.6511 141.9 58.0877L137.727 53.9141C144.134 52.2447 149.864 48.0485 153.271 41.7544C159.79 29.7526 155.324 14.7504 143.322 8.23067C134.298 3.33521 123.582 4.64366 116.047 10.6897H108.602C117.559 -0.0036363 133.08 -3.2748 145.826 3.62849C160.354 11.5244 165.769 29.7074 157.873 44.2586Z" fill="url(#paint0_linear_1020_64)"/>
<path id="Vector_9" d="M136.802 59.4621C130.35 60.6127 123.469 59.6651 117.265 56.3037C110.204 52.4685 105.286 46.1969 103.008 39.1133H108.557C110.61 44.3019 114.445 48.8364 119.747 51.7016C123.65 53.8221 127.868 54.7697 132.019 54.702L136.802 59.4621Z" fill="url(#paint1_linear_1020_64)"/>
</g>
<defs>
<linearGradient id="paint0_linear_1020_64" x1="116.116" y1="4.27784" x2="157.201" y2="42.6559" gradientUnits="userSpaceOnUse">
<stop stop-color="#F47D39"/>
<stop offset="0.0488394" stop-color="#F58140"/>
<stop offset="0.1267" stop-color="#F68E53"/>
<stop offset="0.224" stop-color="#F9A370"/>
<stop offset="0.3367" stop-color="#FCC19B"/>
<stop offset="0.461" stop-color="#FEE9D9"/>
<stop offset="0.5153" stop-color="white"/>
<stop offset="0.5454" stop-color="#DBE0D8"/>
<stop offset="0.6168" stop-color="#A3B49F"/>
<stop offset="0.688" stop-color="#799576"/>
<stop offset="0.7572" stop-color="#588059"/>
<stop offset="0.8242" stop-color="#3E7145"/>
<stop offset="0.8884" stop-color="#286839"/>
<stop offset="0.9483" stop-color="#156233"/>
<stop offset="1" stop-color="#0C6132"/>
</linearGradient>
<linearGradient id="paint1_linear_1020_64" x1="107.337" y1="33.4133" x2="130.107" y2="64.5249" gradientUnits="userSpaceOnUse">
<stop stop-color="#F47D39"/>
<stop offset="0.0488394" stop-color="#F58140"/>
<stop offset="0.1267" stop-color="#F68E53"/>
<stop offset="0.224" stop-color="#F9A370"/>
<stop offset="0.3367" stop-color="#FCC19B"/>
<stop offset="0.461" stop-color="#FEE9D9"/>
<stop offset="0.5153" stop-color="white"/>
<stop offset="0.5454" stop-color="#DBE0D8"/>
<stop offset="0.6168" stop-color="#A3B49F"/>
<stop offset="0.688" stop-color="#799576"/>
<stop offset="0.7572" stop-color="#588059"/>
<stop offset="0.8242" stop-color="#3E7145"/>
<stop offset="0.8884" stop-color="#286839"/>
<stop offset="0.9483" stop-color="#156233"/>
<stop offset="1" stop-color="#0C6132"/>
</linearGradient>
<clipPath id="clip0_1020_64">
<rect width="161.504" height="60" fill="white"/>
</clipPath>
</defs>
</svg>
